# xmcd CD Database Entry
#
# Track frame offsets:
# 150
# 14997
# 35315
# 51667
# 71900
# 85695
# 100962
# 115480
# 133087
# 151112
# 169800
# 186707
#
# Disc length: 2894 seconds
#
# Revision: 2
# Processed by: cddbd v1.4b41PL3 Copyright (c) Steve Scherf et al.
# Submitted via: tcd 2.0b
#
DISCID=b30b4c0c
DTITLE=Joy Division - Gruftgesaenge
DYEAR=1900
DGENRE=
TTITLE0=Digital
TTITLE1=Day Of The Lords
TTITLE2=Insight
TTITLE3=New Dawn Fades
TTITLE4=Disorder
TTITLE5=Transmission
TTITLE6=Love Will Tear Us Apart
TTITLE7=These Days
TTITLE8=Means To An End
TTITLE9=24 Houers
TTITLE10=She's Lost Control
TTITLE11=Atroxity Exhibition
EXTD=
EXTT0=
EXTT1=
EXTT2=
EXTT3=
EXTT4=
EXTT5=
EXTT6=
EXTT7=
EXTT8=
EXTT9=
EXTT10=
EXTT11=
PLAYORDER=
